<mxfile host="app.diagrams.net" modified="2023-04-06T20:46:17.748Z" agent="Mozilla/5.0 (Macintosh; Intel Mac OS X 10_15_7) AppleWebKit/605.1.15 (KHTML, like Gecko) Version/16.3 Safari/605.1.15" etag="xMhaDmExLEQRCVCgD8mj" version="21.1.4" type="google">
  <diagram name="PÃ¡gina-1" id="nf78P-M1hafPABm0uxwa">
    <mxGraphModel grid="1" page="1" gridSize="10" guides="1" tooltips="1" connect="1" arrows="1" fold="1" pageScale="1" pageWidth="827" pageHeight="1169" math="0" shadow="0">
      <root>
        <mxCell id="0" />
        <mxCell id="1" parent="0" />
        <mxCell id="50-cqwfh9lmbgMKdE-ds-3" value="" style="edgeStyle=orthogonalEdgeStyle;rounded=0;orthogonalLoop=1;jettySize=auto;html=1;strokeWidth=3;fontSize=15;" edge="1" parent="1" source="50-cqwfh9lmbgMKdE-ds-1" target="50-cqwfh9lmbgMKdE-ds-2">
          <mxGeometry relative="1" as="geometry" />
        </mxCell>
        <mxCell id="50-cqwfh9lmbgMKdE-ds-1" value="inicio" style="ellipse;whiteSpace=wrap;html=1;strokeWidth=3;fontSize=15;fillColor=#b1ddf0;strokeColor=#10739e;" vertex="1" parent="1">
          <mxGeometry x="354" y="10" width="120" height="80" as="geometry" />
        </mxCell>
        <mxCell id="50-cqwfh9lmbgMKdE-ds-5" value="" style="edgeStyle=orthogonalEdgeStyle;rounded=0;orthogonalLoop=1;jettySize=auto;html=1;strokeWidth=3;fontSize=15;" edge="1" parent="1" source="50-cqwfh9lmbgMKdE-ds-2" target="50-cqwfh9lmbgMKdE-ds-4">
          <mxGeometry relative="1" as="geometry" />
        </mxCell>
        <mxCell id="50-cqwfh9lmbgMKdE-ds-2" value="hora, minuto, ganhoH" style="shape=parallelogram;perimeter=parallelogramPerimeter;whiteSpace=wrap;html=1;fixedSize=1;strokeWidth=3;fontSize=15;fillColor=#fff2cc;strokeColor=#d6b656;" vertex="1" parent="1">
          <mxGeometry x="317" y="120" width="194" height="60" as="geometry" />
        </mxCell>
        <mxCell id="50-cqwfh9lmbgMKdE-ds-7" value="" style="edgeStyle=orthogonalEdgeStyle;rounded=0;orthogonalLoop=1;jettySize=auto;html=1;strokeWidth=3;fontSize=15;" edge="1" parent="1" source="50-cqwfh9lmbgMKdE-ds-4" target="50-cqwfh9lmbgMKdE-ds-6">
          <mxGeometry relative="1" as="geometry" />
        </mxCell>
        <mxCell id="50-cqwfh9lmbgMKdE-ds-4" value="porcM&amp;lt;- minuto/60" style="whiteSpace=wrap;html=1;strokeWidth=3;fontSize=15;fillColor=#d5e8d4;strokeColor=#82b366;" vertex="1" parent="1">
          <mxGeometry x="337" y="210" width="154" height="60" as="geometry" />
        </mxCell>
        <mxCell id="50-cqwfh9lmbgMKdE-ds-9" value="" style="edgeStyle=orthogonalEdgeStyle;rounded=0;orthogonalLoop=1;jettySize=auto;html=1;strokeWidth=3;fontSize=15;" edge="1" parent="1" source="50-cqwfh9lmbgMKdE-ds-6" target="50-cqwfh9lmbgMKdE-ds-8">
          <mxGeometry relative="1" as="geometry" />
        </mxCell>
        <mxCell id="50-cqwfh9lmbgMKdE-ds-6" value="horaT&amp;lt;- hora+porcM" style="whiteSpace=wrap;html=1;strokeWidth=3;fontSize=15;fillColor=#d5e8d4;strokeColor=#82b366;" vertex="1" parent="1">
          <mxGeometry x="337" y="310" width="154" height="60" as="geometry" />
        </mxCell>
        <mxCell id="50-cqwfh9lmbgMKdE-ds-11" value="" style="edgeStyle=orthogonalEdgeStyle;rounded=0;orthogonalLoop=1;jettySize=auto;html=1;strokeWidth=3;fontSize=15;" edge="1" parent="1" source="50-cqwfh9lmbgMKdE-ds-8" target="50-cqwfh9lmbgMKdE-ds-10">
          <mxGeometry relative="1" as="geometry" />
        </mxCell>
        <mxCell id="50-cqwfh9lmbgMKdE-ds-8" value="salario&amp;lt;- horaT*ganhoH" style="whiteSpace=wrap;html=1;strokeWidth=3;fontSize=15;fillColor=#d5e8d4;strokeColor=#82b366;" vertex="1" parent="1">
          <mxGeometry x="327" y="400" width="174" height="60" as="geometry" />
        </mxCell>
        <mxCell id="50-cqwfh9lmbgMKdE-ds-13" value="" style="edgeStyle=orthogonalEdgeStyle;rounded=0;orthogonalLoop=1;jettySize=auto;html=1;strokeWidth=3;fontSize=15;" edge="1" parent="1" source="50-cqwfh9lmbgMKdE-ds-10" target="50-cqwfh9lmbgMKdE-ds-12">
          <mxGeometry relative="1" as="geometry" />
        </mxCell>
        <mxCell id="50-cqwfh9lmbgMKdE-ds-10" value="bonus&amp;lt;- 70/100*salario" style="whiteSpace=wrap;html=1;strokeWidth=3;fontSize=15;fillColor=#d5e8d4;strokeColor=#82b366;" vertex="1" parent="1">
          <mxGeometry x="322" y="490" width="184" height="60" as="geometry" />
        </mxCell>
        <mxCell id="50-cqwfh9lmbgMKdE-ds-15" value="" style="edgeStyle=orthogonalEdgeStyle;rounded=0;orthogonalLoop=1;jettySize=auto;html=1;strokeWidth=3;fontSize=15;" edge="1" parent="1" source="50-cqwfh9lmbgMKdE-ds-12" target="50-cqwfh9lmbgMKdE-ds-14">
          <mxGeometry relative="1" as="geometry" />
        </mxCell>
        <mxCell id="50-cqwfh9lmbgMKdE-ds-12" value="salarioF&amp;lt;- bonus+salario" style="whiteSpace=wrap;html=1;strokeWidth=3;fontSize=15;fillColor=#d5e8d4;strokeColor=#82b366;" vertex="1" parent="1">
          <mxGeometry x="322" y="600" width="184" height="60" as="geometry" />
        </mxCell>
        <mxCell id="50-cqwfh9lmbgMKdE-ds-17" value="" style="edgeStyle=orthogonalEdgeStyle;rounded=0;orthogonalLoop=1;jettySize=auto;html=1;exitX=0.5;exitY=0.9;exitDx=0;exitDy=0;exitPerimeter=0;strokeWidth=3;fontSize=15;" edge="1" parent="1" source="50-cqwfh9lmbgMKdE-ds-14" target="50-cqwfh9lmbgMKdE-ds-16">
          <mxGeometry relative="1" as="geometry" />
        </mxCell>
        <mxCell id="50-cqwfh9lmbgMKdE-ds-14" value="salarioF" style="shape=document;whiteSpace=wrap;html=1;boundedLbl=1;strokeWidth=3;fontSize=15;fillColor=#fff2cc;strokeColor=#d6b656;" vertex="1" parent="1">
          <mxGeometry x="354" y="710" width="120" height="80" as="geometry" />
        </mxCell>
        <mxCell id="50-cqwfh9lmbgMKdE-ds-16" value="fim" style="ellipse;whiteSpace=wrap;html=1;strokeWidth=3;fontSize=15;fillColor=#b1ddf0;strokeColor=#10739e;" vertex="1" parent="1">
          <mxGeometry x="354" y="820" width="120" height="80" as="geometry" />
        </mxCell>
      </root>
    </mxGraphModel>
  </diagram>
</mxfile>
